<?xml version="1.0" encoding="utf-8"?>
<!-- Generator: Adobe Illustrator 17.1.0, SVG Export Plug-In . SVG Version: 6.00 Build 0)  -->
<!DOCTYPE svg PUBLIC "-//W3C//DTD SVG 1.1//EN" "http://www.w3.org/Graphics/SVG/1.1/DTD/svg11.dtd">
<svg version="1.1" xmlns="http://www.w3.org/2000/svg" xmlns:xlink="http://www.w3.org/1999/xlink" x="0px" y="0px" width="200px"
	 height="200px" viewBox="0 0 200 200" enable-background="new 0 0 200 200" xml:space="preserve">
<g id="add" display="none">
	<g display="inline">
		<path fill="#3B383D" d="M100,199c-54.589,0-99-44.412-99-99C1,45.411,45.411,1,100,1c54.588,0,99,44.411,99,99
			C199,154.588,154.588,199,100,199z M100,9.137C49.898,9.137,9.137,49.898,9.137,100c0,50.103,40.761,90.863,90.863,90.863
			c50.103,0,90.863-40.76,90.863-90.863C190.863,49.898,150.103,9.137,100,9.137z"/>
		<path fill="#3B383D" d="M167.808,95.932h-63.74v-63.74c0-2.247-1.821-4.068-4.068-4.068c-2.247,0-4.068,1.822-4.068,4.068v63.74
			h-63.74c-2.247,0-4.068,1.822-4.068,4.068c0,2.247,1.822,4.068,4.068,4.068h63.74v63.74c0,2.247,1.822,4.068,4.068,4.068
			c2.247,0,4.068-1.821,4.068-4.068v-63.74h63.74c2.247,0,4.068-1.821,4.068-4.068C171.877,97.753,170.056,95.932,167.808,95.932z"
			/>
	</g>
</g>
<g id="arrowleft" display="none">
	<g display="inline">
		<path fill="#3B383D" d="M1.404,98.07C1.142,98.699,1,99.379,1,100.074s0.142,1.375,0.404,2.005
			c0.265,0.634,0.647,1.205,1.126,1.683l57.242,57.241c2.035,2.035,5.333,2.035,7.368,0c2.035-2.035,2.035-5.333,0-7.368
			l-48.351-48.35h175c2.88,0,5.211-2.333,5.211-5.211s-2.33-5.211-5.211-5.211h-175l48.501-48.499c2.035-2.035,2.035-5.333,0-7.368
			c-1.018-1.018-2.351-1.527-3.684-1.527s-2.666,0.509-3.684,1.527L2.53,96.387C2.051,96.865,1.669,97.436,1.404,98.07z"/>
	</g>
</g>
<g id="arrowright" display="none">
	<g display="inline">
		<path fill="#3B383D" d="M198.596,101.93c0.263-0.63,0.404-1.31,0.404-2.005s-0.142-1.375-0.404-2.005
			c-0.265-0.634-0.647-1.205-1.126-1.683l-57.242-57.241c-2.035-2.035-5.333-2.035-7.368,0c-2.035,2.035-2.035,5.333,0,7.368
			l48.351,48.35h-175C3.33,94.715,1,97.048,1,99.926s2.33,5.211,5.211,5.211h175l-48.501,48.499c-2.035,2.035-2.035,5.333,0,7.368
			c1.018,1.018,2.351,1.527,3.684,1.527s2.666-0.509,3.684-1.527l57.393-57.39C197.949,103.135,198.331,102.564,198.596,101.93z"/>
	</g>
</g>
<g id="circle" display="none">
	<circle display="inline" fill="#3B383D" cx="100" cy="100" r="99"/>
</g>
<g id="close" display="none">
	<g display="inline">
		<polygon fill="#3B383D" points="99.995,120.219 38.867,181.346 18.649,161.128 79.777,100 18.649,38.872 38.867,18.654 
			99.995,79.781 161.133,18.654 181.35,38.872 120.222,100 181.35,161.128 161.133,181.347 		"/>
	</g>
</g>
<g id="closethin" display="none">
	<polygon display="inline" fill="#3B383D" points="199,10.854 189.146,1 100,90.146 10.854,1 1,10.854 90.146,100 1,189.146 
		10.854,199 100,109.854 189.146,199 199,189.146 109.854,100 	"/>
</g>
<g id="down" display="none">
	<polygon display="inline" fill-rule="evenodd" clip-rule="evenodd" fill="#3B383D" points="199,56.6 191.482,49.161 
		101.253,138.439 8.519,46.68 1,54.12 96.327,148.445 101.253,153.32 	"/>
</g>
<g id="facebook" display="none">
	<path display="inline" fill="#3B383D" d="M52.242,66.481h20.465V46.59c0-8.775,0.221-22.3,6.592-30.678
		C86.01,7.035,95.223,1,111.068,1c25.818,0,36.69,3.683,36.69,3.683l-5.115,30.326c0,0-8.53-2.467-16.487-2.467
		c-7.961,0-15.088,2.854-15.088,10.81v23.13h32.638l-2.279,29.62h-30.359V199H72.707V96.102H52.242V66.481z"/>
</g>
<g id="facebookcircle" display="none">
	<path display="inline" fill="#3B383D" d="M99.999,1.001C45.324,1.001,1,45.328,1,100c0,54.678,44.324,98.999,98.999,98.999
		c54.675,0,99.001-44.32,99.001-98.999C199,45.328,154.673,1.001,99.999,1.001z M121.858,83.237l-1.14,14.811h-15.183v51.451H86.351
		V98.048H76.116V83.237h10.235V73.29c0-4.386,0.11-11.15,3.297-15.34c3.356-4.437,7.963-7.452,15.888-7.452
		c12.912,0,18.349,1.842,18.349,1.842l-2.558,15.163c0,0-4.266-1.234-8.245-1.234c-3.981,0-7.545,1.427-7.545,5.406v11.562H121.858z
		"/>
</g>
<g id="feather" display="none">
	<g display="inline">
		<path fill="#3B383D" d="M100,1C45.411,1,1,45.411,1,100c0,54.588,44.411,99,99,99c54.588,0,99-44.412,99-99
			C199,45.411,154.588,1,100,1z M100,190.863c-50.102,0-90.863-40.76-90.863-90.863C9.137,49.898,49.898,9.137,100,9.137
			c50.103,0,90.863,40.761,90.863,90.863C190.863,150.103,150.103,190.863,100,190.863z"/>
		<path fill="#3B383D" d="M100,28.123c-8.397,0-15.979,10.805-22.536,32.114c-5.258,17.09-8.656,38.02-8.656,53.324
			c0,27.051,19.847,39.591,27.123,43.279v10.968c0,2.247,1.822,4.068,4.068,4.068c2.247,0,4.068-1.821,4.068-4.068v-10.967
			c7.276-3.688,27.123-16.228,27.123-43.279c0-15.304-3.397-36.234-8.656-53.324C115.979,38.928,108.397,28.123,100,28.123z
			 M104.068,147.591V72.877c0-2.247-1.821-4.068-4.068-4.068c-2.247,0-4.068,1.822-4.068,4.068v74.714
			c-7.235-4.503-18.986-14.78-18.986-34.029c0-14.56,3.257-34.552,8.296-50.931C91.194,43.283,97.329,36.26,100,36.26
			s8.806,7.023,14.759,26.37c5.039,16.379,8.296,36.371,8.296,50.931C123.055,132.811,111.303,143.088,104.068,147.591z"/>
	</g>
</g>
<g id="google" display="none">
	<g display="inline">
		<path fill="#3B383D" d="M67.255,189.202c-23.54,0-40.534-14.891-40.534-32.794c0-17.539,21.085-32.145,44.621-31.885
			c5.49,0.057,10.611,0.944,15.254,2.444c12.765,8.889,21.933,13.901,24.519,24.03c0.489,2.057,0.755,4.16,0.755,6.319
			C111.87,175.22,100.344,189.202,67.255,189.202 M73.439,84.252c-15.789-0.477-30.81-17.676-33.533-38.42
			c-2.728-20.744,7.872-36.624,23.66-36.157c15.789,0.477,30.81,17.118,33.533,37.863C99.821,68.281,89.233,84.729,73.439,84.252
			 M106.186,114.976c-5.54-3.933-16.129-13.469-16.129-19.073c0-6.582,1.875-9.81,11.764-17.551
			c10.139-7.922,17.317-19.061,17.317-32.02c0-15.425-6.871-30.452-19.761-35.419h19.437L132.535,1H71.222
			c-27.479,0-53.35,20.825-53.35,44.945c0,24.654,18.739,44.558,46.701,44.558c1.95,0,3.832-0.045,5.684-0.171
			c-1.812,3.467-3.119,7.389-3.119,11.436c0,6.853,3.689,12.424,8.348,16.959c-3.523,0-6.928,0.102-10.621,0.102
			c-34.05,0-60.256,21.677-60.256,44.171c0,22.143,28.73,35.999,62.768,35.999c38.811,0,60.255-22.029,60.255-44.171
			C127.63,137.062,122.389,126.422,106.186,114.976 M195.393,86.059h-23.871V62.189h-19.21v23.871h-23.865v19.209h23.865v23.871
			h19.21v-23.871h23.871V86.059z"/>
	</g>
</g>
<g id="googlecircle" display="none">
	<g display="inline">
		<path fill="#3B383D" d="M199,99.997c0-54.671-44.321-98.994-98.997-98.994C45.329,1.003,1,45.326,1,99.997
			c0,54.677,44.329,99,99.003,99C154.679,198.997,199,154.674,199,99.997z M147.702,102.373h-11.937v11.937h-9.606v-11.937h-11.934
			v-9.607h11.934V80.833h9.606v11.933h11.937V102.373z M116.268,50.24l-6.861,4.957h-9.72c6.446,2.484,9.882,9.998,9.882,17.712
			c0,6.474-3.59,12.045-8.66,16.01c-4.945,3.866-5.883,5.48-5.883,8.77c0,2.806,5.295,7.575,8.066,9.536
			c8.103,5.727,10.723,11.045,10.723,19.927c0,11.075-10.723,22.086-30.132,22.086c-17.021,0-31.389-6.926-31.389-17.999
			c0-11.246,13.105-22.086,30.133-22.086c1.847,0,3.549-0.051,5.311-0.051c-2.33-2.268-4.175-5.048-4.175-8.475
			c0-2.026,0.654-3.988,1.56-5.721c-0.926,0.066-1.867,0.086-2.842,0.086c-13.983,0-23.354-9.951-23.354-22.277
			c0-12.059,12.938-22.473,26.679-22.473H116.268z"/>
		<path fill="#3B383D" d="M81.779,54.577c-7.895-0.233-13.196,7.705-11.832,18.079c1.361,10.371,8.873,18.971,16.769,19.207
			c7.898,0.238,13.193-7.981,11.832-18.354C97.186,63.135,89.675,54.816,81.779,54.577z"/>
		<path fill="#3B383D" d="M85.667,111.999c-11.769-0.128-22.314,7.174-22.314,15.944c0,8.95,8.498,16.396,20.27,16.396
			c16.547,0,22.31-6.989,22.31-15.942c0-1.08-0.133-2.132-0.378-3.16c-1.293-5.065-5.878-7.571-12.261-12.017
			C90.973,112.471,88.413,112.031,85.667,111.999z"/>
	</g>
</g>
<g id="membrane" display="none">
	<g display="inline">
		<path fill="#3B383D" d="M100,1C45.411,1,1,45.411,1,100c0,54.588,44.411,99,99,99c54.588,0,99-44.412,99-99
			C199,45.411,154.588,1,100,1z M100,9.137c48.738,0,88.623,38.575,90.76,86.795h-57.136c2.415-5.252,4.349-10.655,4.349-16.274
			c0-7.741-3.666-15.072-7.21-22.162c-3.267-6.533-6.352-12.702-6.352-18.523c0-2.247-1.821-4.068-4.068-4.068
			c-2.247,0-4.068,1.822-4.068,4.068c0,7.741,3.666,15.072,7.21,22.162c3.267,6.533,6.352,12.702,6.352,18.523
			c0,5.148-2.414,10.57-5.232,16.274H106.5c2.415-5.252,4.349-10.655,4.349-16.274c0-7.741-3.666-15.072-7.21-22.162
			c-3.267-6.533-6.352-12.702-6.352-18.523c0-2.247-1.822-4.068-4.068-4.068s-4.068,1.822-4.068,4.068
			c0,7.741,3.665,15.072,7.211,22.162c3.266,6.533,6.351,12.702,6.351,18.523c0,5.148-2.415,10.57-5.232,16.274H79.377
			c2.415-5.252,4.349-10.655,4.349-16.274c0-7.741-3.665-15.072-7.211-22.162c-3.266-6.533-6.351-12.702-6.351-18.523
			c0-2.247-1.822-4.068-4.068-4.068c-2.247,0-4.068,1.822-4.068,4.068c0,7.741,3.665,15.072,7.211,22.162
			c3.266,6.533,6.351,12.702,6.351,18.523c0,5.148-2.415,10.57-5.232,16.274H9.24C11.377,47.712,51.262,9.137,100,9.137z
			 M100,190.863c-48.738,0-88.623-38.574-90.76-86.795h57.136c-2.415,5.252-4.349,10.655-4.349,16.274
			c0,7.741,3.665,15.073,7.211,22.162c3.266,6.532,6.351,12.702,6.351,18.523c0,2.247,1.822,4.068,4.068,4.068
			c2.247,0,4.068-1.821,4.068-4.068c0-7.741-3.665-15.073-7.211-22.162c-3.266-6.532-6.351-12.702-6.351-18.523
			c0-5.148,2.415-10.571,5.232-16.274H93.5c-2.415,5.252-4.349,10.655-4.349,16.274c0,7.741,3.665,15.073,7.211,22.162
			c3.266,6.532,6.351,12.702,6.351,18.523c0,2.247,1.821,4.068,4.068,4.068c2.247,0,4.068-1.821,4.068-4.068
			c0-7.741-3.666-15.073-7.21-22.162c-3.267-6.532-6.352-12.702-6.352-18.523c0-5.148,2.415-10.571,5.232-16.274h18.103
			c-2.415,5.252-4.349,10.655-4.349,16.274c0,7.741,3.666,15.073,7.21,22.162c3.267,6.532,6.352,12.702,6.352,18.523
			c0,2.247,1.821,4.068,4.068,4.068c2.247,0,4.068-1.821,4.068-4.068c0-7.741-3.666-15.073-7.21-22.162
			c-3.267-6.532-6.352-12.702-6.352-18.523c0-5.148,2.414-10.571,5.232-16.274h61.117C188.623,152.289,148.738,190.863,100,190.863z
			"/>
	</g>
</g>
<g id="mouse" display="none">
	<g display="inline">
		<circle fill="#3B383D" cx="101.29" cy="76.019" r="9.839"/>
		<path fill="#3B383D" d="M103.749,22.101V1h-9.839v21.277c-27.224,3.108-49.193,26.686-49.193,54.273v67.808
			c0,29.619,25.317,54.643,55.279,54.643c30.13,0,54.64-24.512,54.64-54.597l0.644-67.854
			C155.282,48.18,132.042,24.089,103.749,22.101z M144.799,144.357c0,24.704-20.1,44.804-44.802,44.804
			c-24.63,0-45.441-20.518-45.441-44.804V76.549c0-24.286,20.811-44.804,45.441-44.804c24.635,0,45.445,20.518,45.445,44.758
			L144.799,144.357z"/>
	</g>
</g>
<g id="night" display="none">
	<path display="inline" fill="#3B383D" d="M159.639,41.855c-3.159,0-6.283,0.373-9.317,1.112C138.4,27.287,119.777,18,100,18
		c-16.456,0-32.098,6.447-43.76,17.639c0.305-18.945,10.819-34.537,10.925-34.69c0.753-1.095,0.837-2.517,0.219-3.694
		c-0.618-1.177-1.838-1.913-3.167-1.913c-21.704,0-39.361,18.452-39.361,41.133c0,2.823,0.274,5.58,0.795,8.244
		C11.215,50.558,1,64.713,1,81.217c0,21.704,17.657,39.361,39.361,39.361h119.277c21.704,0,39.361-17.657,39.361-39.361
		C199,59.513,181.343,41.855,159.639,41.855z M50.674,50.626c1.752,7.915,4.615,14.585,6.93,19.105
		c-10.458-2.312-19.065-9.994-23.106-20.174c1.903-0.352,3.861-0.545,5.864-0.545c3.305,0,6.558,0.498,9.67,1.48
		C50.244,50.559,50.459,50.599,50.674,50.626z M32.012,36.474c0-16.344,10.995-30.03,25.592-33.256
		c-3.597,7.024-8.535,19.222-8.535,33.256c0,2.198,0.133,4.343,0.351,6.438c-2.954-0.698-5.988-1.057-9.058-1.057
		c-2.675,0-5.288,0.271-7.815,0.782C32.197,40.637,32.012,38.578,32.012,36.474z M159.639,113.422H40.361
		c-17.758,0-32.205-14.447-32.205-32.205c0-13.241,8.034-24.637,19.482-29.58c5.789,15.196,19.998,25.97,36.578,25.97
		c1.327,0,2.545-0.736,3.164-1.911c0.62-1.174,0.536-2.596-0.213-3.691c-0.092-0.135-7.78-11.528-10.212-26.652
		C67.552,32.638,83.304,25.156,100,25.156c18.295,0,35.474,8.961,45.958,23.972c0.897,1.282,2.521,1.836,4.012,1.363
		c3.111-0.982,6.365-1.48,9.669-1.48c17.758,0,32.205,14.448,32.205,32.205C191.843,98.975,177.396,113.422,159.639,113.422z"/>
</g>
<g id="pause" display="none">
	<g display="inline">
		<path fill="#3B383D" d="M5.157,199C2.837,199,1,197.163,1,194.843V5.157C1,2.837,2.837,1,5.157,1h65.936
			c2.32,0,4.157,1.837,4.157,4.157v189.686c0,2.32-1.837,4.157-4.157,4.157H5.157z M128.907,199c-2.32,0-4.157-1.837-4.157-4.157
			V5.157c0-2.32,1.837-4.157,4.157-4.157h65.936C197.163,1,199,2.837,199,5.157v189.686c0,2.32-1.837,4.157-4.157,4.157H128.907z"/>
	</g>
</g>
<g id="pinterest" display="none">
	<g display="inline">
		<path fill="#3B383D" d="M100.005,0.983C45.334,0.983,1,45.311,1,99.994c0,40.541,24.381,75.375,59.272,90.69
			c-0.285-6.901-0.051-15.212,1.716-22.738C63.893,159.92,74.722,114,74.722,114s-3.161-6.332-3.161-15.666
			c0-14.677,8.509-25.636,19.093-25.636c9.005,0,13.359,6.765,13.359,14.87c0,9.05-5.775,22.591-8.743,35.13
			c-2.484,10.505,5.264,19.066,15.621,19.066c18.758,0,31.389-24.078,31.389-52.638c0-21.692-14.615-37.938-41.189-37.938
			c-30.031,0-48.738,22.397-48.738,47.408c0,8.629,2.54,14.723,6.519,19.43c1.837,2.171,2.086,3.035,1.427,5.525
			c-0.471,1.807-1.563,6.207-2.017,7.935c-0.66,2.512-2.689,3.411-4.951,2.479c-13.836-5.651-20.276-20.793-20.276-37.824
			c0-28.126,23.709-61.858,70.747-61.858c37.802,0,62.676,27.365,62.676,56.719c0,38.847-21.589,67.86-53.422,67.86
			c-10.68,0-20.736-5.775-24.175-12.335c0,0-5.753,22.806-6.97,27.217c-2.091,7.629-6.207,15.256-9.964,21.203
			c8.901,2.637,18.309,4.07,28.058,4.07c54.673,0,98.995-44.338,98.995-99.023C199,45.311,154.678,0.983,100.005,0.983"/>
	</g>
</g>
<g id="pinterestcircle" display="none">
	<path display="inline" fill="#3B383D" d="M199,100c0-54.672-44.323-98.997-99-98.997C45.326,1.003,1,45.329,1,100
		c0,54.677,44.326,98.997,99,98.997C154.677,198.997,199,154.677,199,100z M50.501,99.739c0-27.338,22.167-49.499,49.501-49.499
		c27.336,0,49.496,22.16,49.496,49.499c0,27.336-22.161,49.499-49.496,49.499c-4.874,0-9.578-0.716-14.028-2.032
		c1.878-2.973,3.937-6.787,4.982-10.601c0.608-2.203,3.485-13.605,3.485-13.605c1.719,3.28,6.748,6.168,12.087,6.168
		c15.916,0,26.711-14.503,26.711-33.924c0-14.676-12.437-28.355-31.337-28.355c-23.519,0-35.373,16.865-35.373,30.925
		c0,8.512,3.22,16.084,10.138,18.909c1.131,0.463,2.146,0.014,2.476-1.239c0.227-0.866,0.773-3.067,1.009-3.97
		c0.329-1.245,0.205-1.677-0.714-2.763c-1.989-2.353-3.26-5.395-3.26-9.709c0-12.506,9.353-23.701,24.368-23.701
		c13.287,0,20.594,8.12,20.594,18.966c0,14.274-6.316,26.315-15.694,26.315c-5.178,0-9.053-4.28-7.81-9.533
		c1.484-6.269,4.371-13.037,4.371-17.564c0-4.05-2.177-7.432-6.679-7.432c-5.292,0-9.547,5.477-9.547,12.815
		c0,4.67,1.58,7.83,1.58,7.83s-5.414,22.956-6.366,26.972c-0.884,3.76-1.001,7.913-0.858,11.366
		C62.691,137.419,50.501,120.006,50.501,99.739z"/>
</g>
<g id="play" display="none">
	<g display="inline">
		<path fill="#3B383D" d="M2.837,198.324c-1.16-0.677-1.837-2.03-1.837-3.48V5.158c0-1.45,0.677-2.804,1.837-3.48
			c1.354-0.87,2.707-0.87,4.157-0.193L196.68,96.327c1.45,0.677,2.32,2.03,2.32,3.674s-0.87,2.997-2.32,3.674L6.994,198.518
			c-0.677,0.29-1.16,0.483-1.837,0.483S3.514,198.808,2.837,198.324z"/>
	</g>
</g>
<g id="rain" display="none">
	<path display="inline" fill="#3B383D" d="M159.639,41.855c-3.159,0-6.283,0.373-9.317,1.112C138.4,27.287,119.777,18,100,18
		c-19.778,0-38.401,9.287-50.322,24.967c-3.034-0.738-6.158-1.112-9.317-1.112C18.657,41.855,1,59.513,1,81.217
		c0,21.704,17.657,39.361,39.361,39.361h32.24v67.988c0,1.977,1.602,3.578,3.578,3.578c1.976,0,3.578-1.602,3.578-3.578v-67.988
		h16.699v91.843c0,1.977,1.602,3.578,3.578,3.578c1.977,0,3.578-1.602,3.578-3.578v-91.843h16.699v44.133
		c0,1.977,1.602,3.578,3.578,3.578s3.578-1.602,3.578-3.578v-44.133h32.17c21.704,0,39.361-17.657,39.361-39.361
		C199,59.513,181.343,41.855,159.639,41.855z M159.639,113.422h-32.17V69.289c0-1.976-1.602-3.578-3.578-3.578
		s-3.578,1.602-3.578,3.578v44.133H79.758V93.145c0-1.976-1.602-3.578-3.578-3.578c-1.976,0-3.578,1.602-3.578,3.578v20.277h-32.24
		c-17.758,0-32.205-14.447-32.205-32.205s14.447-32.205,32.205-32.205c3.305,0,6.558,0.498,9.67,1.48
		c1.49,0.471,3.115-0.082,4.01-1.363C64.525,34.118,81.706,25.157,100,25.157c18.295,0,35.474,8.962,45.958,23.972
		c0.896,1.282,2.523,1.836,4.012,1.363c3.111-0.982,6.365-1.48,9.669-1.48c17.758,0,32.205,14.447,32.205,32.205
		S177.396,113.422,159.639,113.422z"/>
</g>
<g id="replay" display="none">
	<g id="Xjh66Z_1_" display="inline">
		<g>
			<path fill="#3B383D" d="M9.436,121.302c2.957-0.554,5.923-1.11,9.04-1.694c6.703,25.488,21.232,44.721,44.412,56.969
				c17.521,9.258,36.289,12.194,55.691,8.224c42.755-8.75,70.938-43.901,70.381-87.102c-0.516-40.033-30.509-75.209-70.915-82.563
				c-40.586-7.387-76.821,15.012-91.753,45.3c9.347-2.653,18.352-5.208,27.597-7.832c0.967,3.3,1.843,6.292,2.804,9.576
				c-14.396,4.179-28.705,8.332-43.341,12.58C9.242,60.327,5.161,45.998,1,31.388c3.193-0.931,6.258-1.824,9.61-2.801
				c2.417,8.361,4.785,16.551,7.337,25.378c14.8-25.301,35.827-41.666,64.23-47.832c28.331-6.151,54.304-0.383,77.673,16.538
				c35.518,25.717,50.039,74.611,30.221,117.804c-19.937,43.455-67.491,62.898-108.793,53.447
				C37.685,183.945,12.71,146.328,9.436,121.302z"/>
		</g>
	</g>
</g>
<g id="share" display="none">
	<g display="inline">
		<g>
			<path fill="#3B383D" d="M168.062,62.875c-9.124,0-17.24-4.02-22.902-10.304L62.574,97.087c0.092,0.974,0.298,1.916,0.298,2.914
				c0,0.932-0.194,1.802-0.28,2.708l82.696,44.566c5.654-6.196,13.72-10.15,22.774-10.15c17.082,0,30.938,13.856,30.938,30.938
				c0,17.088-13.856,30.938-30.938,30.938c-17.088,0-30.938-13.85-30.938-30.938c0-0.418,0.1-0.806,0.122-1.22l-83.428-44.968
				c-5.606,5.6-13.34,9.062-21.88,9.062C14.85,130.937,1,117.087,1,99.999c0-17.082,13.85-30.938,30.938-30.938
				c8.464,0,16.13,3.42,21.716,8.936l83.57-45.044c-0.012-0.346-0.1-0.666-0.1-1.016c0-17.082,13.85-30.938,30.938-30.938
				C185.144,0.999,199,14.855,199,31.937C198.998,49.027,185.144,62.875,168.062,62.875z"/>
		</g>
	</g>
</g>
<g id="shoe" display="none">
	<g display="inline">
		<path fill="#3B383D" d="M185.376,54.734c4.163,14.487,10.804,28.142,12.887,43.488c1.033,7.609,1.111,15.468-0.616,22.927
			c-0.384,1.658-0.835,3.282-1.357,4.879c-0.451,1.381-0.078,2.51,0.118,3.932c0.488,3.549,0.89,7.136,1.476,10.661
			c0.526,3.169,0.222,6.673-2.439,8.143c-1.301,0.719-2.725,0.518-4.111,0.518c-2.114,0-4.228,0-6.342,0c-7.55,0-15.1,0-22.649,0
			c-15.1,0-30.199,0-45.299,0c-29.405,0-58.886,0.777-88.264-0.789c-5.609-0.299-11.11-1.582-16.649-2.568
			c-2.569-0.457-5.275-1.308-7.709-2.434c-1.118-0.517-3.482-0.798-3.421-2.451c0.08-2.158,0.184-4.325,0.309-6.48
			c0.443-7.665,2.049-16.092,6.283-21.866c4.163-5.678,10.025-7.979,15.91-9.201c5.934-1.233,11.684-1.644,17.369-4.308
			c5.908-2.769,11.802-5.589,17.465-9.102c2.647-1.642,5.367-3.112,7.983-4.832c0.976-0.641,0.853-2.216,2.205-2.635
			c0.639-0.198,1.376,0.353,1.962-0.006c0.779-0.478,1.54-1.009,2.314-1.501c0.998-0.634,2.783-1.3,3.505-2.392
			c0.775-1.172,0.926-2.279,2.327-2.53c0.486-0.087,0.859,0.214,1.312,0.167c0.64-0.065,1.37-0.798,1.92-1.159
			c1.189-0.779,3.5-1.61,4.353-2.944c0.711-1.111,0.929-2.299,2.292-2.424c1.394-0.128,1.852-0.181,3.233-1.085
			c1.381-0.904,2.763-1.805,4.147-2.7c0.415-0.269,0.542-1.196,0.864-1.62c0.67-0.883,1.651-1.137,2.578-0.858
			c1.052,0.316,3.146-1.677,4.084-2.243c0.739-0.446,1.488-0.872,2.22-1.337c0.493-0.314,0.534-1.365,0.894-1.868
			c1.218-1.701,2.238-0.214,3.521-0.739c1.415-0.579,2.757-1.611,4.123-2.355c2.579-1.403,5.175-2.738,7.793-4.021
			c3.399-1.665,5.32,1.342,7.356,4.256c4.363,6.245,8.385,13.468,14.02,18.024c6.828,5.521,16.161,5.36,23.297,0.65
			c4.131-2.727,5.838-8.418,8.114-13.204C177.133,55.723,181.024,54.734,185.376,54.734
			C185.733,55.974,185.202,54.734,185.376,54.734z M22.23,112.606c10.606,3.396,23.654,0.929,30.579,14.028
			c0.766,1.448,1.485,2.97,2.01,4.582c0.429,1.318,2.025,0.827,2.93,0.833c3.881,0.028,7.761-0.043,11.642-0.049
			c6.895-0.009,13.868-0.357,20.739-0.947c24.307-2.084,48.669-4.75,73.025-6.437c2.835-0.196,5.668-0.426,8.506-0.584
			c1.276-0.071,2.549-0.176,3.826-0.247c0.702-0.039,1.402-0.169,2.105-0.161c0.866,0.01,0.533-1.555,0.557-2.426
			c0.216-7.642,2.977-14.603,5.829-21.18c1.367-3.154,3.226-6.644,3.559-10.297c0.359-3.934-1.249-8.481-2.381-12.039
			c-1.078-3.389-2.285-6.737-3.217-10.194c-0.167-0.617-0.548-3.581-1.099-3.292c-1.322,0.693-2.198,4.075-2.86,5.524
			c-1.47,3.215-2.836,6.407-5.13,8.839c-2.712,2.875-6.069,4.253-9.421,5.452c-5.594,2.001-12.279,2.764-17.801,0.018
			c-2.625-1.306-5.057-2.868-7.296-5.058c-1.256-1.229-2.484-2.556-3.61-3.971c-0.837-1.051-2.752-4.724-3.854-5.025
			c-1.012-0.276-3.044,1.198-4.016,1.622c-1.333,0.582-2.655,1.203-3.972,1.84c-3.111,1.505-6.182,3.113-9.243,4.772
			c-14.848,8.046-29.079,18.067-44.379,24.766c-7.501,3.284-16.196,5.885-24.158,4.125c-2.13-0.471-3.62,0.778-5.658,1.643
			c-2.123,0.901-4.241,1.354-6.463,1.671c-1.956,0.279-3.908,0.535-5.863,0.823C26.286,111.361,22.498,111.529,22.23,112.606
			C22.726,112.764,22.3,112.325,22.23,112.606z M191.462,141.126c-0.435-3.274-1.024-6.529-1.376-9.82
			c-0.228-2.128-0.822-1.518-2.441-1.431c-1.96,0.105-3.92,0.221-5.88,0.288c-6.4,0.218-12.773,0.953-19.168,1.258
			c-12.292,0.586-24.567,2.245-36.836,3.303c-25.795,2.225-51.407,4.712-77.292,3.736c-11.716-0.442-23.477-1.775-35.051-4.112
			c-1.206-0.243-2.426-0.435-3.618-0.77c-0.473-0.133-1.107-0.112-1.559-0.354c-0.735-0.394-0.527,1.536-0.566,1.99
			c-0.123,1.418,0.212,1.149,1.239,1.497c0.749,0.253,1.493,0.552,2.248,0.775c1.61,0.475,3.243,0.806,4.857,1.248
			c6.001,1.645,12.447,2.202,18.573,2.458c28.162,1.175,56.306,0.407,84.484,0.179C143.205,141.173,167.332,141.126,191.462,141.126
			C191.42,140.805,191.172,141.126,191.462,141.126z M49.175,131.72c0.185-1.207-1.964-3.569-2.604-4.303
			c-1.479-1.697-3.208-2.965-5.07-3.868c-3.574-1.734-7.456-2.251-11.233-2.81c-4.163-0.616-8.897-0.848-12.568-3.659
			c-1.691-1.294-1.718-3.442-3.62-1.704c-1.503,1.374-2.696,3.158-3.565,5.221c-0.36,0.854-2.154,4.99-1.63,5.863
			c0.552,0.92,3.769,0.869,4.756,1.097c3.894,0.901,7.854,1.455,11.785,2.045c3.964,0.595,7.941,1.007,11.923,1.364
			c1.671,0.15,3.341,0.313,5.011,0.417C44.497,131.516,47.061,132.148,49.175,131.72C49.185,131.656,49.112,131.733,49.175,131.72z
			 M94.28,75.606c1.474,1.892,1.294,5.462-1.222,5.824c-1.188,0.171-1.919-0.834-2.687-1.799c-1.06-1.33-1.529-0.577-2.742,0.217
			c-0.86,0.563-2.277,1.099-2.947,1.987c-0.25,0.331,0.53,2.831,0.142,3.768c-1.404,3.388-3.623,0.986-5.141-0.539
			c-1.065,0.691-2.126,1.392-3.194,2.075c-0.637,0.407-1.277,0.807-1.89,1.268c0.192,0.721,0.379,1.42,0.264,2.194
			c-0.193,1.296-1.09,2.436-2.134,2.612c-1.452,0.244-2.371-2.065-3.424-1.474c-2.699,1.514-5.314,3.29-7.99,4.869
			c-2.068,1.22-5.25,2.154-6.917,4.132c1.984,0.663,5.186-1.051,7.145-1.567c2.505-0.661,4.964-1.789,7.386-2.816
			c4.429-1.878,8.738-4.192,13.005-6.583c9.047-5.069,17.846-10.816,26.902-15.859c4.718-2.627,9.461-5.081,14.277-7.41
			c0.894-0.432,1.799-0.828,2.702-1.23c1.706-0.759,1.448-0.8,0.298-2.496c-0.761-1.122-1.525-2.24-2.282-3.366
			c-0.867-1.289-1.429-0.575-2.542-0.006c-2.068,1.058-4.121,2.139-6.155,3.295c-1.157,0.657-0.581,0.857,0.039,1.783
			c0.698,1.042,0.732,2.604,0.143,3.74c-1.784,3.445-4.247-0.008-5.648-1.789c-0.696-0.885-4.815,2.182-5.538,2.946
			c2.296,2.27,1.03,7.688-2.134,5.902c-0.643-0.363-2.321-3.362-2.908-2.881C97.577,73.64,95.722,74.226,94.28,75.606
			C94.413,75.777,94.422,75.47,94.28,75.606z M191.441,96.324c-0.636-0.128-2.345,5.157-2.72,6.02
			c-1.036,2.382-2.06,4.77-2.977,7.229c-0.923,2.475-1.641,5.093-2.07,7.774c-0.241,1.5-0.454,3.003-0.495,4.537
			c-0.054,1.986,0.717,1.392,2.147,1.327c0.797-0.037,4.883,0.368,5.197-0.577c0.889-2.68,1.204-5.387,1.752-8.172
			C193.419,108.637,192.311,102.074,191.441,96.324C191.249,96.285,191.558,97.097,191.441,96.324z"/>
	</g>
</g>
<g id="shop" display="none">
	<g display="inline">
		<path fill="#3B383D" d="M197.345,57.573c-1.822-2.613-4.928-4.112-8.524-4.112h-0.011L58.432,53.572l-3.047-15.019
			c-1.239-6.091-6.938-12.009-12.979-13.472L6.195,16.316c-2.248-0.541-4.527,0.838-5.077,3.095
			c-0.544,2.259,0.841,4.533,3.097,5.079l36.211,8.765c2.918,0.706,6.117,4.028,6.714,6.969l15.319,75.5
			c0.144,0.707,0.355,1.393,0.609,2.062l5.692,27.449c1.346,6.498,7.599,11.585,14.234,11.585h88.661
			c2.324,0,4.205-1.884,4.205-4.205s-1.881-4.205-4.205-4.205H82.995c-2.613,0-5.472-2.327-6.002-4.883l-3.436-16.577
			c1.014,0.241,2.054,0.383,3.107,0.383h88c6.358,0,13.063-4.673,15.263-10.638l18.33-49.694
			C199.504,63.625,199.17,60.188,197.345,57.573z M128.078,61.921l24.135-0.021l-4.888,57.024h-19.247V61.921z M119.669,118.925
			H99.934l-4.884-56.976l24.618-0.021V118.925z M71.125,115.223l-8.669-41.818c-0.001-0.004-0.003-0.008-0.004-0.012l-2.316-11.413
			l26.475-0.023l4.883,56.969H76.663C74.47,118.925,72.122,117.268,71.125,115.223z M190.368,64.093l-18.333,49.694
			c-0.992,2.688-4.505,5.138-7.372,5.138h-8.897l4.888-57.032l28.164-0.024h0.003c0.785,0,1.407,0.199,1.629,0.516
			C190.671,62.702,190.64,63.358,190.368,64.093z"/>
		<path fill="#3B383D" d="M92.805,158.573c-6.955,0-12.614,5.66-12.614,12.614c0,6.955,5.66,12.614,12.614,12.614
			c6.955,0,12.614-5.66,12.614-12.614C105.419,164.233,99.76,158.573,92.805,158.573z M92.805,175.392
			c-2.318,0-4.205-1.886-4.205-4.205c0-2.318,1.886-4.205,4.205-4.205c2.318,0,4.205,1.887,4.205,4.205
			C97.01,173.506,95.123,175.392,92.805,175.392z"/>
		<path fill="#3B383D" d="M152.082,158.573c-6.957,0-12.614,5.66-12.614,12.614c0,6.955,5.657,12.614,12.614,12.614
			c6.955,0,12.614-5.66,12.614-12.614C164.696,164.233,159.037,158.573,152.082,158.573z M152.082,175.392
			c-2.318,0-4.205-1.886-4.205-4.205c0-2.318,1.886-4.205,4.205-4.205c2.318,0,4.205,1.887,4.205,4.205
			C156.287,173.506,154.4,175.392,152.082,175.392z"/>
	</g>
</g>
<g id="snow" display="none">
	<g display="inline">
		<path fill="#3B383D" d="M159.638,120.579H40.362C18.657,120.579,1,102.921,1,81.217s17.657-39.362,39.362-39.362
			c3.159,0,6.282,0.373,9.317,1.112C61.599,27.287,80.222,18,100,18s38.4,9.287,50.321,24.967c3.034-0.738,6.158-1.112,9.317-1.112
			c21.704,0,39.362,17.657,39.362,39.362S181.343,120.579,159.638,120.579z M40.362,49.012c-17.758,0-32.205,14.447-32.205,32.205
			s14.447,32.205,32.205,32.205h119.277c17.758,0,32.205-14.447,32.205-32.205s-14.447-32.205-32.205-32.205
			c-3.305,0-6.558,0.498-9.669,1.48c-1.49,0.473-3.116-0.08-4.012-1.363C135.474,34.118,118.294,25.157,100,25.157
			s-35.475,8.962-45.959,23.972c-0.895,1.282-2.519,1.834-4.01,1.363C46.919,49.51,43.667,49.012,40.362,49.012z"/>
		<circle fill="#3B383D" cx="52.143" cy="142.354" r="6.486"/>
		<circle fill="#3B383D" cx="100" cy="142.354" r="6.486"/>
		<circle fill="#3B383D" cx="147.857" cy="142.354" r="6.486"/>
		<circle fill="#3B383D" cx="52.143" cy="193.643" r="6.486"/>
		<circle fill="#3B383D" cx="100" cy="193.643" r="6.486"/>
		<circle fill="#3B383D" cx="147.857" cy="193.643" r="6.486"/>
		<circle fill="#3B383D" cx="28.142" cy="167.998" r="6.486"/>
		<circle fill="#3B383D" cx="75.999" cy="167.998" r="6.486"/>
		<circle fill="#3B383D" cx="123.856" cy="167.998" r="6.486"/>
	</g>
</g>
<g id="sunbig" display="none">
	<g display="inline">
		<path fill="#3B383D" d="M100.499,151.968c-28.655,0-51.967-23.312-51.967-51.967c0-28.655,23.312-51.967,51.967-51.967
			c28.655,0,51.967,23.312,51.967,51.967C152.467,128.656,129.155,151.968,100.499,151.968z M100.499,57.483
			c-23.444,0-42.518,19.074-42.518,42.518c0,23.445,19.074,42.519,42.518,42.519c23.445,0,42.519-19.074,42.519-42.519
			C143.018,76.556,123.945,57.483,100.499,57.483z"/>
		<path fill="#3B383D" d="M154.283,73.438c-1.633,0-3.22-0.847-4.095-2.363c-1.306-2.26-0.531-5.149,1.729-6.454l27.275-15.747
			c2.262-1.303,5.15-0.529,6.453,1.729c1.306,2.26,0.531,5.149-1.729,6.454l-27.275,15.747
			C155.896,73.233,155.084,73.438,154.283,73.438z"/>
		<path fill="#3B383D" d="M99.727,41.943c-2.609,0-4.724-2.115-4.724-4.724V5.724C95.003,3.115,97.118,1,99.727,1
			s4.725,2.115,4.725,4.724v31.495C104.452,39.828,102.336,41.943,99.727,41.943z"/>
		<path fill="#3B383D" d="M181.935,152.225c-0.821,0-1.652-0.214-2.408-0.663l-27.074-16.09c-2.244-1.333-2.982-4.232-1.649-6.474
			c1.332-2.245,4.234-2.977,6.474-1.649l27.074,16.09c2.244,1.333,2.982,4.232,1.649,6.474
			C185.118,151.401,183.547,152.225,181.935,152.225z"/>
		<path fill="#3B383D" d="M99.492,199c-0.03,0-0.06,0-0.091-0.002c-2.609-0.049-4.683-2.204-4.634-4.812l0.594-31.489
			c0.048-2.579,2.155-4.635,4.722-4.635c0.03,0,0.06,0,0.091,0.002c2.608,0.049,4.683,2.204,4.634,4.812l-0.594,31.489
			C104.165,196.944,102.06,199,99.492,199z"/>
		<path fill="#3B383D" d="M18.064,150.472c-1.674,0-3.296-0.893-4.154-2.467c-1.247-2.293-0.4-5.161,1.892-6.408l27.663-15.055
			c2.291-1.247,5.159-0.401,6.408,1.89c1.247,2.293,0.4,5.161-1.892,6.408l-27.663,15.055
			C19.601,150.286,18.828,150.472,18.064,150.472z"/>
		<path fill="#3B383D" d="M46.732,72.295c-0.85,0-1.71-0.229-2.485-0.71L17.481,54.986c-2.218-1.375-2.9-4.287-1.525-6.504
			c1.375-2.218,4.286-2.903,6.504-1.525l26.766,16.599c2.218,1.375,2.9,4.287,1.525,6.504
			C49.857,71.502,48.313,72.295,46.732,72.295z"/>
	</g>
</g>
<g id="sun" display="none">
	<g display="inline">
		<path fill="#3B383D" d="M25.346,6.49c0.663,1.148,1.865,1.79,3.103,1.79c0.607,0,1.222-0.155,1.786-0.48
			c1.712-0.988,2.298-3.176,1.31-4.888L19.616-17.748c-0.988-1.71-3.176-2.297-4.888-1.31c-1.712,0.988-2.298,3.176-1.31,4.888
			L25.346,6.49z"/>
		<path fill="#3B383D" d="M8.169,46.019c0-1.976-1.602-3.578-3.578-3.578h-23.855c-1.976,0-3.578,1.602-3.578,3.578
			c0,1.976,1.602,3.578,3.578,3.578H4.59C6.566,49.597,8.169,47.995,8.169,46.019z"/>
		<path fill="#3B383D" d="M74.365,7.797c0.564,0.326,1.179,0.48,1.786,0.48c1.237,0,2.44-0.642,3.103-1.79L91.18-14.172
			c0.989-1.712,0.402-3.9-1.309-4.888c-1.712-0.988-3.9-0.401-4.888,1.31L73.055,2.909C72.067,4.621,72.653,6.809,74.365,7.797z"/>
		<path fill="#3B383D" d="M159.639,120.578c21.704,0,39.361-17.657,39.361-39.361c0-21.704-17.657-39.361-39.361-39.361
			c-3.159,0-6.283,0.373-9.317,1.112C138.401,27.287,119.778,18,100,18c-5.972,0-11.835,0.861-17.444,2.475
			C75.331,11.687,64.382,6.072,52.144,6.072c-21.704,0-39.361,17.657-39.361,39.361c0,2.428,0.232,4.802,0.655,7.109
			C5.791,59.728,1,69.921,1,81.217c0,21.704,17.657,39.361,39.361,39.361H159.639z M19.939,45.434
			c0-17.758,14.447-32.205,32.205-32.205c9.067,0,17.265,3.772,23.123,9.823c-9.999,4.257-18.862,11.067-25.589,19.915
			c-3.034-0.738-6.158-1.112-9.317-1.112c-7.441,0-14.405,2.076-20.347,5.679C19.97,46.839,19.939,46.14,19.939,45.434z
			 M84.349,45.434c0,17.758-14.447,32.205-32.205,32.205c-14.363,0-26.557-9.454-30.695-22.464
			c5.315-3.871,11.85-6.162,18.913-6.162c3.305,0,6.559,0.498,9.67,1.48c1.49,0.472,3.115-0.081,4.01-1.363
			c6.469-9.263,15.493-16.212,25.751-20.184C82.683,33.772,84.349,39.411,84.349,45.434z M40.362,113.422
			c-17.758,0-32.205-14.447-32.205-32.205c0-7.905,2.868-15.149,7.612-20.76c5.916,14.271,19.99,24.338,36.375,24.338
			c21.704,0,39.361-17.657,39.361-39.361c0-6.758-1.713-13.123-4.727-18.686c4.285-1.042,8.719-1.591,13.222-1.591
			c18.295,0,35.474,8.961,45.958,23.972c0.897,1.282,2.523,1.835,4.012,1.363c3.111-0.982,6.365-1.48,9.669-1.48
			c17.758,0,32.205,14.447,32.205,32.205s-14.447,32.205-32.205,32.205H40.362z"/>
	</g>
</g>
<g id="sunrain" display="none">
	<g display="inline">
		<path fill="#3B383D" d="M25.346,6.49c0.663,1.148,1.865,1.79,3.103,1.79c0.607,0,1.222-0.155,1.786-0.48
			c1.712-0.988,2.298-3.176,1.31-4.888L19.616-17.748c-0.988-1.71-3.176-2.297-4.888-1.31c-1.712,0.988-2.298,3.176-1.31,4.888
			L25.346,6.49z"/>
		<path fill="#3B383D" d="M8.169,46.019c0-1.976-1.602-3.578-3.578-3.578h-23.855c-1.976,0-3.578,1.602-3.578,3.578
			c0,1.976,1.602,3.578,3.578,3.578H4.59C6.566,49.597,8.169,47.995,8.169,46.019z"/>
		<path fill="#3B383D" d="M74.365,7.797c0.564,0.326,1.179,0.48,1.786,0.48c1.237,0,2.44-0.642,3.103-1.79L91.18-14.172
			c0.989-1.712,0.402-3.9-1.309-4.888c-1.712-0.988-3.9-0.401-4.888,1.31L73.055,2.909C72.067,4.621,72.653,6.809,74.365,7.797z"/>
		<path fill="#3B383D" d="M159.639,41.856c-3.159,0-6.283,0.373-9.317,1.112C138.401,27.287,119.778,18,100,18
			c-5.972,0-11.835,0.861-17.444,2.475C75.331,11.687,64.382,6.072,52.144,6.072c-21.704,0-39.361,17.657-39.361,39.361
			c0,2.428,0.232,4.802,0.655,7.109C5.791,59.728,1,69.921,1,81.217c0,21.704,17.657,39.361,39.361,39.361h32.059v67.988
			c0,1.977,1.602,3.578,3.578,3.578c1.976,0,3.578-1.602,3.578-3.578v-67.988h16.699v91.843c0,1.977,1.602,3.578,3.578,3.578
			c1.977,0,3.578-1.602,3.578-3.578v-91.843h16.699v44.132c0,1.977,1.602,3.578,3.578,3.578c1.977,0,3.578-1.602,3.578-3.578
			v-44.132h32.35c21.704,0,39.361-17.657,39.361-39.361C199,59.513,181.343,41.856,159.639,41.856z M19.939,45.434
			c0-17.758,14.447-32.205,32.205-32.205c9.067,0,17.265,3.772,23.123,9.823c-9.999,4.257-18.862,11.067-25.589,19.915
			c-3.034-0.738-6.158-1.112-9.317-1.112c-7.441,0-14.405,2.076-20.347,5.679C19.97,46.839,19.939,46.14,19.939,45.434z
			 M84.349,45.434c0,17.758-14.447,32.205-32.205,32.205c-14.363,0-26.557-9.454-30.695-22.464
			c5.315-3.871,11.85-6.162,18.913-6.162c3.305,0,6.559,0.498,9.67,1.48c1.49,0.472,3.115-0.081,4.01-1.363
			c6.469-9.263,15.493-16.212,25.751-20.184C82.683,33.772,84.349,39.411,84.349,45.434z M159.639,113.422h-32.35V69.289
			c0-1.976-1.602-3.578-3.578-3.578c-1.977,0-3.578,1.602-3.578,3.578v44.133H79.577V93.145c0-1.976-1.602-3.578-3.578-3.578
			c-1.976,0-3.578,1.602-3.578,3.578v20.277H40.362c-17.758,0-32.205-14.447-32.205-32.205c0-7.905,2.868-15.149,7.612-20.76
			c5.916,14.271,19.99,24.338,36.375,24.338c21.704,0,39.361-17.657,39.361-39.361c0-6.758-1.713-13.123-4.727-18.686
			c4.285-1.042,8.719-1.591,13.222-1.591c18.295,0,35.474,8.961,45.958,23.972c0.897,1.282,2.523,1.835,4.012,1.363
			c3.111-0.982,6.365-1.48,9.669-1.48c17.758,0,32.205,14.447,32.205,32.205S177.396,113.422,159.639,113.422z"/>
	</g>
</g>
<g id="temperature" display="none">
	<g display="inline">
		<path fill="#3B383D" d="M100,1C45.411,1,1,45.411,1,100c0,54.588,44.411,99,99,99c54.588,0,99-44.412,99-99
			C199,45.411,154.588,1,100,1z M100,190.863c-50.102,0-90.863-40.76-90.863-90.863C9.137,49.898,49.898,9.137,100,9.137
			c50.103,0,90.863,40.761,90.863,90.863C190.863,150.103,150.103,190.863,100,190.863z"/>
		<path fill="#3B383D" d="M104.068,109.767V32.192c0-2.247-1.821-4.068-4.068-4.068c-2.247,0-4.068,1.822-4.068,4.068v77.575
			c-15.282,2.001-27.123,15.098-27.123,30.918c0,17.2,13.993,31.192,31.192,31.192c17.2,0,31.192-13.992,31.192-31.192
			C131.192,124.865,119.351,111.768,104.068,109.767z M100,163.74c-12.713,0-23.055-10.342-23.055-23.055
			c0-12.713,10.342-23.055,23.055-23.055s23.055,10.342,23.055,23.055C123.055,153.398,112.713,163.74,100,163.74z"/>
	</g>
</g>
<g id="testing" display="none">
	<g display="inline">
		<path fill="#3B383D" d="M100,1C45.412,1,1,45.411,1,100c0,54.588,44.412,99,99,99s99-44.412,99-99C199,45.411,154.588,1,100,1z
			 M100,190.863c-50.103,0-90.863-40.76-90.863-90.863S49.897,9.137,100,9.137S190.863,49.898,190.863,100
			S150.103,190.863,100,190.863z"/>
		<path fill="#3B383D" d="M100,72.817c4.753,0,8.969-2.293,11.637-5.82c4.906,1.731,9.398,4.54,13.115,8.255
			c0.795,0.795,1.836,1.192,2.877,1.192s2.082-0.397,2.877-1.192c1.589-1.589,1.589-4.165,0-5.753
			c-4.526-4.527-9.994-7.959-15.966-10.099c0.032-0.391,0.06-0.782,0.06-1.181c0-8.049-6.549-14.597-14.599-14.597
			S85.403,50.17,85.403,58.219C85.403,66.268,91.95,72.817,100,72.817z M100,51.758c3.563,0,6.462,2.898,6.462,6.46
			c0,3.563-2.899,6.461-6.462,6.461s-6.46-2.898-6.46-6.461C93.54,54.657,96.437,51.758,100,51.758z"/>
		<path fill="#3B383D" d="M100,127.183c-4.753,0-8.969,2.293-11.636,5.819c-4.908-1.732-9.401-4.542-13.117-8.259
			c-1.589-1.589-4.165-1.588-5.754-0.001c-1.589,1.589-1.589,4.165-0.001,5.754c4.528,4.528,9.997,7.961,15.971,10.102
			c-0.032,0.391-0.06,0.783-0.06,1.181c0,8.05,6.548,14.597,14.597,14.597s14.599-6.548,14.599-14.597
			C114.599,133.731,108.05,127.183,100,127.183z M100,148.241c-3.563,0-6.46-2.898-6.46-6.46c0-3.563,2.898-6.46,6.46-6.46
			s6.462,2.898,6.462,6.46C106.462,145.343,103.563,148.241,100,148.241z"/>
		<path fill="#3B383D" d="M141.782,85.402c-8.05,0-14.599,6.549-14.599,14.599c0,4.753,2.293,8.969,5.82,11.636
			c-1.731,4.906-4.54,9.398-8.254,13.113c-1.589,1.588-1.589,4.165,0,5.753c0.795,0.795,1.836,1.192,2.877,1.192
			c1.041,0,2.082-0.397,2.877-1.192c4.525-4.525,7.958-9.992,10.098-15.964c0.391,0.032,0.783,0.06,1.182,0.06
			c8.05,0,14.597-6.548,14.597-14.597S149.831,85.402,141.782,85.402z M141.782,106.461c-3.563,0-6.462-2.898-6.462-6.46
			c0-3.563,2.899-6.462,6.462-6.462c3.563,0,6.46,2.899,6.46,6.462C148.242,103.563,145.344,106.461,141.782,106.461z"/>
		<path fill="#3B383D" d="M72.817,100c0-4.753-2.293-8.969-5.82-11.637c1.731-4.906,4.539-9.398,8.254-13.113
			c1.589-1.589,1.589-4.165,0-5.753c-1.589-1.589-4.164-1.589-5.753,0c-4.527,4.526-7.958,9.993-10.098,15.964
			c-0.391-0.032-0.782-0.06-1.181-0.06c-8.05,0-14.597,6.549-14.597,14.599s6.548,14.597,14.597,14.597
			C66.269,114.598,72.817,108.05,72.817,100z M58.22,106.461c-3.563,0-6.46-2.898-6.46-6.46c0-3.563,2.898-6.462,6.46-6.462
			c3.563,0,6.46,2.899,6.46,6.462C64.68,103.563,61.782,106.461,58.22,106.461z"/>
	</g>
</g>
<g id="thunder" display="none">
	<path display="inline" fill="#3B383D" d="M159.638,41.855c-3.159,0-6.283,0.373-9.317,1.112C138.4,27.287,119.777,18,100,18
		c-19.778,0-38.401,9.287-50.321,24.967c-3.034-0.739-6.158-1.112-9.317-1.112c-21.704,0-39.361,17.657-39.361,39.361
		s17.657,39.361,39.361,39.361h65.618L84.715,163.11c-0.555,1.109-0.496,2.426,0.157,3.482c0.652,1.055,1.804,1.697,3.044,1.697
		h18.065L84.715,210.82c-0.884,1.768-0.168,3.917,1.6,4.801c0.514,0.256,1.06,0.379,1.598,0.379c1.313,0,2.577-0.726,3.203-1.979
		l23.856-47.711c0.554-1.109,0.495-2.426-0.157-3.482c-0.652-1.055-1.803-1.697-3.044-1.697H93.705l20.278-40.554h45.656
		c21.704,0,39.361-17.657,39.361-39.361S181.342,41.855,159.638,41.855z M159.638,113.421H40.362
		c-17.758,0-32.205-14.447-32.205-32.205s14.447-32.205,32.205-32.205c3.305,0,6.558,0.498,9.67,1.48
		c1.492,0.471,3.115-0.082,4.01-1.363C64.525,34.118,81.706,25.157,100,25.157c18.294,0,35.474,8.961,45.958,23.972
		c0.896,1.282,2.522,1.836,4.012,1.363c3.111-0.982,6.365-1.48,9.669-1.48c17.758,0,32.205,14.447,32.205,32.205
		S177.396,113.421,159.638,113.421z"/>
</g>
<g id="time" display="none">
	<g display="inline">
		<path fill="#3B383D" d="M100,1C45.411,1,1,45.411,1,100c0,54.588,44.411,99,99,99s99-44.412,99-99C199,45.411,154.588,1,100,1z
			 M100,190.863c-50.102,0-90.863-40.76-90.863-90.863C9.137,49.898,49.898,9.137,100,9.137S190.863,49.898,190.863,100
			C190.863,150.102,150.101,190.863,100,190.863z"/>
		<path fill="#3B383D" d="M142.907,112.243l-23.745-9.19c0.158-0.997,0.264-2.012,0.264-3.053c0-10.712-8.714-19.427-19.427-19.427
			c-0.884,0-1.747,0.08-2.6,0.195L80.858,34.823c-0.762-2.115-3.096-3.21-5.206-2.45c-2.114,0.762-3.211,3.092-2.45,5.206
			L89.746,83.53c-5.497,3.435-9.173,9.524-9.173,16.47c0,10.713,8.715,19.427,19.427,19.427c6.783,0,12.757-3.5,16.232-8.783
			l23.738,9.187c0.483,0.187,0.98,0.275,1.467,0.275c1.632,0,3.172-0.988,3.796-2.601
			C146.044,115.409,145.003,113.053,142.907,112.243z M100,111.29c-6.225,0-11.29-5.064-11.29-11.29
			c0-6.225,5.065-11.29,11.29-11.29c6.225,0,11.29,5.065,11.29,11.29C111.289,106.226,106.225,111.29,100,111.29z"/>
	</g>
</g>
<g id="twitter" display="none">
	<path display="inline" fill="#3B383D" d="M199,38.583c-7.28,3.234-15.116,5.413-23.328,6.401
		c8.393-5.028,14.834-12.995,17.858-22.472c-7.853,4.653-16.535,8.024-25.802,9.84c-7.394-7.889-17.96-12.826-29.649-12.826
		c-22.421,0-40.609,18.204-40.609,40.631c0,3.19,0.346,6.277,1.045,9.25c-33.759-1.701-63.681-17.852-83.73-42.458
		c-3.496,6.027-5.499,13.007-5.499,20.452c0,14.073,7.173,26.523,18.074,33.81c-6.657-0.205-12.927-2.043-18.409-5.074v0.5
		c0,19.691,13.999,36.113,32.595,39.836c-3.411,0.954-6.996,1.431-10.708,1.431c-2.616,0-5.169-0.238-7.638-0.715
		c5.164,16.127,20.162,27.885,37.94,28.202c-13.902,10.895-31.42,17.387-50.447,17.387c-3.28,0-6.52-0.181-9.692-0.556
		c17.978,11.519,39.331,18.25,62.268,18.25c74.73,0,115.577-61.899,115.577-115.604c0-1.76-0.035-3.518-0.108-5.254
		C186.675,53.882,193.57,46.733,199,38.583"/>
</g>
<g id="twittercircle" display="none">
	<path display="inline" fill="#3B383D" d="M100.001,1.001C45.324,1.001,1,45.328,1,100c0,54.678,44.324,98.999,99.001,98.999
		c54.675,0,98.999-44.32,98.999-98.999C199,45.328,154.677,1.001,100.001,1.001z M139.519,84.598
		c0.037,0.867,0.054,1.748,0.054,2.632c0,26.889-20.458,57.886-57.887,57.886c-11.488,0-22.183-3.371-31.187-9.137
		c1.589,0.19,3.212,0.281,4.855,0.281c9.53,0,18.304-3.251,25.267-8.711c-8.904-0.156-16.416-6.043-19.002-14.122
		c1.236,0.239,2.515,0.361,3.826,0.361c1.859,0,3.655-0.239,5.363-0.717c-9.314-1.864-16.325-10.087-16.325-19.949v-0.25
		c2.746,1.515,5.886,2.439,9.22,2.541c-5.46-3.652-9.052-9.882-9.052-16.933c0-3.729,1.003-7.222,2.754-10.238
		C67.445,80.56,82.431,88.651,99.34,89.501c-0.35-1.486-0.523-3.035-0.523-4.633c0-11.232,9.11-20.344,20.339-20.344
		c5.855,0,11.147,2.47,14.85,6.423c4.641-0.909,8.99-2.601,12.923-4.931c-1.515,4.75-4.74,8.734-8.944,11.252
		c4.113-0.491,8.038-1.586,11.684-3.202C146.949,78.144,143.496,81.728,139.519,84.598z"/>
</g>
<g id="volume" display="none">
	<g display="inline">
		<path fill="#3B383D" d="M145.9,194.09c0,1.856-1.044,3.829-3.016,4.641c-1.972,0.58-4.177,0.232-5.453-1.16l-53.136-53.02H46.937
			c-2.784,0-4.989-2.204-4.989-4.989V60.438c0-2.784,2.204-4.989,4.989-4.989h37.358l53.136-53.02
			c1.276-1.392,3.481-1.74,5.453-1.16c1.972,0.812,3.016,2.784,3.016,4.641V194.09z"/>
	</g>
</g>
<g id="volumeoff" display="none">
	<g display="inline">
		<polygon fill="#3B383D" points="41.948,69.603 41.948,130.397 72.345,100 		"/>
		<path fill="#3B383D" d="M136.598,35.752c2.581-2.581,5.848-4.205,9.303-4.982V5.909c0-1.856-1.044-3.829-3.016-4.641
			c-1.972-0.58-4.177-0.232-5.453,1.16l-53.136,53.02h-1.197l16.902,16.902L136.598,35.752z"/>
		<path fill="#3B383D" d="M99.999,127.649l-16.902,16.902h1.197l53.136,53.02c1.276,1.392,3.481,1.74,5.453,1.16
			c1.972-0.812,3.016-2.784,3.016-4.641v-24.698c-3.487-0.826-6.707-2.549-9.303-5.145L99.999,127.649z"/>
		<polygon fill="#3B383D" points="145.9,81.753 127.654,100 145.9,118.247 		"/>
		<path fill="#3B383D" d="M156.616,144.235L145.9,133.519L112.382,100L145.9,66.481l10.716-10.716c3.407-3.412,3.407-8.965,0-12.377
			c-2.831-2.826-7.366-3.079-10.716-1.079l0,0c-0.57,0.34-1.185,0.6-1.666,1.079L99.999,87.623L67.825,55.449L55.765,43.388
			c-3.301-3.296-9.06-3.312-12.382,0.005c-3.407,3.407-3.407,8.96,0,12.372l0.685,0.685L87.617,100l-43.55,43.55l-0.685,0.685
			c-3.407,3.412-3.407,8.965,0,12.377c3.322,3.307,9.081,3.296,12.382,0l12.061-12.061l32.174-32.174l44.235,44.235
			c3.312,3.296,9.06,3.312,12.393-0.005C160.023,153.2,160.023,147.647,156.616,144.235z"/>
	</g>
</g>
<g id="waterproof" display="none">
	<g display="inline">
		<path fill="#3B383D" d="M100,1C45.411,1,1,45.411,1,100c0,54.588,44.411,99,99,99c54.588,0,99-44.412,99-99
			C199,45.411,154.588,1,100,1z M190.863,100c0,23.591-9.042,45.107-23.836,61.276l-31.354-31.355
			c0.61-2.645,0.942-5.395,0.942-8.222c0-33.519-32-76.57-33.361-78.386c-0.769-1.024-1.975-1.628-3.255-1.628
			s-2.487,0.603-3.255,1.628c-0.712,0.949-9.787,13.164-18.292,29.386L38.727,32.971C54.896,18.178,76.41,9.137,100,9.137
			C150.103,9.137,190.863,49.898,190.863,100z M84.523,78.768c5.66-11.11,11.822-20.627,15.478-25.971
			c8.096,11.825,28.478,44.064,28.478,68.901c0,0.33-0.038,0.651-0.05,0.978L84.523,78.768z M126.448,132.201
			c-4.192,10.516-14.456,17.977-26.448,17.977c-15.704,0-28.479-12.776-28.479-28.479c0-11.063,4.057-23.605,9.267-35.159
			L126.448,132.201z M9.137,100c0-23.591,9.042-45.107,23.836-61.276l41.658,41.659c-6.182,13.152-11.248,27.985-11.248,41.315
			c0,20.19,16.426,36.616,36.616,36.616c14.196,0,26.522-8.126,32.595-19.966l28.679,28.68
			c-16.169,14.793-37.684,23.834-61.274,23.834C49.898,190.863,9.137,150.103,9.137,100z"/>
	</g>
</g>
<g id="windproof" display="none">
	<g display="inline">
		<path fill="#3B383D" d="M170.348,169.574C188.048,151.68,199,127.098,199,100c0-54.589-44.412-99-99-99
			C72.943,1,48.395,11.92,30.507,29.573c-0.179,0.128-0.811,0.76-0.939,0.939C11.918,48.4,1,72.945,1,100c0,54.588,44.411,99,99,99
			c27.092,0,51.669-10.948,69.563-28.641C169.711,170.247,170.237,169.721,170.348,169.574z M190.863,100
			c0,23.593-9.043,45.342-23.839,61.511L132.783,127.5h9.649c2.247,0,4.068-1.753,4.068-4s-1.821-4-4.068-4h-17.786l-13.023-13
			h20.021c12.713,0,23.055-10.654,23.055-23.366c0-12.713-10.342-23.211-23.055-23.211c-1.373,0-2.736,0.043-4.075,0.282
			c-6.75-8.199-16.859-13.057-27.568-13.057c-10.708,0-20.817,4.799-27.568,12.998c-1.338-0.24-2.702-0.37-4.076-0.37
			c-0.905,0-1.794,0.061-2.672,0.163l-26.96-26.964C54.893,18.182,76.409,9.138,100,9.138C150.103,9.138,190.863,49.898,190.863,100
			z M63.114,69.254L91.979,98.5H68.356c-8.226,0-14.918-6.882-14.918-15.107C53.438,77.013,57.471,71.382,63.114,69.254z
			 M74.49,69.123c1.144-0.123,2.214-0.907,2.903-1.894C82.551,59.845,91.002,55.342,100,55.342c8.999,0,17.45,4.361,22.606,11.745
			c1.018,1.458,2.869,2.062,4.561,1.526c1.438-0.454,2.945-0.697,4.476-0.697c8.226,0,14.918,7.067,14.918,15.292
			c0,8.225-6.692,15.292-14.918,15.292h-28.157L74.49,69.123z M9.137,100c0-23.589,9.041-45.104,23.833-61.272l24.045,24.046
			c-6.983,3.966-11.714,11.771-11.714,20.361c0,12.712,10.342,23.366,23.055,23.366h31.76l13.023,13H89.628
			c-2.247,0-4.068,1.753-4.068,4s1.822,4,4.068,4h31.648l39.994,39.764c-16.168,14.791-37.682,23.715-61.27,23.715
			C49.898,190.979,9.137,150.103,9.137,100z"/>
		<path fill="#3B383D" d="M121.072,140.5H57.568c-2.247,0-4.068,1.753-4.068,4s1.822,4,4.068,4h63.504
			c3.793,0,6.879,3.034,6.879,6.825c0,3.793-3.086,6.853-6.879,6.853c-2.247,0-4.068,1.808-4.068,4.055s1.821,4.062,4.068,4.062
			c8.28,0,15.016-6.618,15.016-14.898C136.088,147.118,129.352,140.5,121.072,140.5z"/>
	</g>
</g>
<g id="wind" display="none">
	<g display="inline">
		<path fill="#3B383D" d="M171.555,180.217c-6.808,0-13.257-3.224-19.492-6.341c-5.745-2.874-11.172-5.586-16.291-5.586
			s-10.546,2.713-16.291,5.586c-6.235,3.117-12.684,6.341-19.492,6.341c-6.808,0-13.256-3.224-19.492-6.341
			c-5.745-2.874-11.172-5.586-16.291-5.586c-5.119,0-10.546,2.713-16.291,5.586c-6.236,3.117-12.684,6.341-19.492,6.341
			c-1.976,0-3.578-1.602-3.578-3.578c0-1.977,1.602-3.578,3.578-3.578c5.119,0,10.546-2.713,16.291-5.586
			c6.236-3.117,12.684-6.341,19.492-6.341c6.808,0,13.256,3.224,19.492,6.341c5.745,2.874,11.172,5.586,16.291,5.586
			c5.119,0,10.546-2.713,16.291-5.586c6.235-3.117,12.684-6.341,19.492-6.341s13.257,3.224,19.492,6.341
			c5.745,2.874,11.172,5.586,16.291,5.586c1.977,0,3.578,1.602,3.578,3.578C175.133,178.615,173.531,180.217,171.555,180.217z"/>
		<path fill="#3B383D" d="M171.555,156.361c-6.808,0-13.257-3.224-19.492-6.341c-5.745-2.874-11.172-5.586-16.291-5.586
			s-10.546,2.713-16.291,5.586c-6.235,3.117-12.684,6.341-19.492,6.341c-6.808,0-13.256-3.224-19.492-6.341
			c-5.745-2.874-11.172-5.586-16.291-5.586c-5.119,0-10.546,2.713-16.291,5.586c-6.236,3.117-12.684,6.341-19.492,6.341
			c-1.976,0-3.578-1.602-3.578-3.578c0-1.977,1.602-3.578,3.578-3.578c5.119,0,10.546-2.713,16.291-5.586
			c6.236-3.117,12.684-6.341,19.492-6.341c6.808,0,13.256,3.224,19.492,6.341c5.745,2.874,11.172,5.586,16.291,5.586
			c5.119,0,10.546-2.713,16.291-5.586c6.235-3.117,12.684-6.341,19.492-6.341s13.257,3.224,19.492,6.341
			c5.745,2.874,11.172,5.586,16.291,5.586c1.977,0,3.578,1.602,3.578,3.578C175.133,154.76,173.531,156.361,171.555,156.361z"/>
		<path fill="#3B383D" d="M171.555,204.072c-6.808,0-13.257-3.224-19.492-6.341c-5.745-2.874-11.172-5.586-16.291-5.586
			s-10.546,2.713-16.291,5.586c-6.235,3.117-12.684,6.341-19.492,6.341c-6.808,0-13.256-3.224-19.492-6.341
			c-5.745-2.874-11.172-5.586-16.291-5.586c-5.119,0-10.546,2.713-16.291,5.586c-6.236,3.117-12.684,6.341-19.492,6.341
			c-1.976,0-3.578-1.602-3.578-3.578c0-1.977,1.602-3.578,3.578-3.578c5.119,0,10.546-2.713,16.291-5.586
			c6.236-3.117,12.684-6.341,19.492-6.341c6.808,0,13.256,3.224,19.492,6.341c5.745,2.874,11.172,5.586,16.291,5.586
			c5.119,0,10.546-2.713,16.291-5.586c6.235-3.117,12.684-6.341,19.492-6.341s13.257,3.224,19.492,6.341
			c5.745,2.874,11.172,5.586,16.291,5.586c1.977,0,3.578,1.602,3.578,3.578C175.133,202.471,173.531,204.072,171.555,204.072z"/>
		<path fill="#3B383D" d="M159.639,120.578H40.361C18.657,120.578,1,102.921,1,81.217s17.657-39.361,39.361-39.361
			c3.159,0,6.282,0.373,9.317,1.112C61.599,27.287,80.222,18,100,18c19.777,0,38.4,9.287,50.321,24.967
			c3.034-0.738,6.158-1.112,9.317-1.112c21.704,0,39.361,17.657,39.361,39.361S181.343,120.578,159.639,120.578z M40.361,49.012
			c-17.758,0-32.205,14.447-32.205,32.205s14.447,32.205,32.205,32.205h119.277c17.758,0,32.205-14.447,32.205-32.205
			s-14.447-32.205-32.205-32.205c-3.305,0-6.558,0.498-9.669,1.48c-1.49,0.472-3.116-0.08-4.012-1.363
			C135.474,34.118,118.295,25.157,100,25.157c-18.294,0-35.475,8.962-45.958,23.972c-0.895,1.282-2.519,1.833-4.01,1.363
			C46.92,49.51,43.667,49.012,40.361,49.012z"/>
	</g>
</g>
<g id="wind2" display="none">
	<g display="inline">
		<path fill="#3B383D" d="M171.59,192.145H28.457c-1.976,0-3.578-1.602-3.578-3.578c0-1.977,1.602-3.578,3.578-3.578H171.59
			c1.977,0,3.578,1.602,3.578,3.578C175.168,190.543,173.566,192.145,171.59,192.145z"/>
		<path fill="#3B383D" d="M171.59,168.289H28.457c-1.976,0-3.578-1.602-3.578-3.578c0-1.977,1.602-3.578,3.578-3.578H171.59
			c1.977,0,3.578,1.602,3.578,3.578C175.168,166.688,173.566,168.289,171.59,168.289z"/>
		<path fill="#3B383D" d="M171.59,144.434H28.457c-1.976,0-3.578-1.602-3.578-3.578c0-1.977,1.602-3.578,3.578-3.578H171.59
			c1.977,0,3.578,1.602,3.578,3.578C175.168,142.832,173.566,144.434,171.59,144.434z"/>
		<path fill="#3B383D" d="M159.639,120.578H40.361C18.657,120.578,1,102.921,1,81.217s17.657-39.361,39.361-39.361
			c3.159,0,6.282,0.373,9.317,1.112C61.599,27.287,80.222,18,100,18c19.777,0,38.4,9.287,50.321,24.967
			c3.034-0.738,6.158-1.112,9.317-1.112c21.704,0,39.361,17.657,39.361,39.361S181.343,120.578,159.639,120.578z M40.361,49.012
			c-17.758,0-32.205,14.447-32.205,32.205s14.447,32.205,32.205,32.205h119.277c17.758,0,32.205-14.447,32.205-32.205
			s-14.447-32.205-32.205-32.205c-3.305,0-6.558,0.498-9.669,1.48c-1.489,0.472-3.115-0.081-4.012-1.363
			C135.474,34.118,118.295,25.157,100,25.157c-18.294,0-35.475,8.962-45.958,23.972c-0.896,1.282-2.519,1.835-4.01,1.363
			C46.92,49.51,43.667,49.012,40.361,49.012z"/>
	</g>
</g>
<g id="lightning" display="none">
	<path display="inline" fill="#3B383D" d="M159.448,41.827c-3.158,0-6.277,0.373-9.306,1.11C138.236,27.275,119.636,18,99.881,18
		S61.526,27.275,49.62,42.938c-3.03-0.738-6.149-1.111-9.306-1.111C18.636,41.827,1,59.463,1,81.141s17.636,39.314,39.314,39.314
		h64.54L92.027,157.11h23.827L105.614,190c-0.882,1.766-0.166,3.913,1.599,4.796c0.513,0.256,1.059,0.378,1.596,0.378
		c1.31,0,2.572-0.725,3.199-1.977l15.413-43.236h-23.827l10.253-29.506h45.602c21.678,0,39.314-17.636,39.314-39.314
		S181.127,41.827,159.448,41.827z M159.448,113.308H40.314c-17.736,0-32.166-14.43-32.166-32.166s14.43-32.166,32.166-32.166
		c3.302,0,6.552,0.497,9.657,1.479l2.504,0.791l1.503-2.152c10.47-14.993,27.63-23.944,45.903-23.944s35.432,8.951,45.903,23.944
		l1.504,2.152l2.504-0.791c3.104-0.981,6.353-1.479,9.656-1.479c17.736,0,32.166,14.43,32.166,32.166
		S177.185,113.308,159.448,113.308z"/>
</g>
<g id="hamburger" display="none">
	<g id="hamburger_1_" display="inline">
		<g>
			<path fill="#020101" d="M0.289,152.789h199.423v23.461H0.289V152.789z"/>
			<path fill="#020101" d="M0.289,88.267h199.423v23.461H0.289V88.267z"/>
			<path fill="#020101" d="M0.289,23.75h199.423v23.461H0.289V23.75z"/>
		</g>
	</g>
</g>
<g id="clock-one" display="none">
	<g display="inline">
		<path d="M100,199c-54.587,0-99-44.41-99-98.998S45.413,1,100,1s99,44.414,99,99.002S154.587,199,100,199z M100,18.748
			c-44.803,0-81.252,36.45-81.252,81.254c0,44.8,36.449,81.25,81.252,81.25s81.252-36.45,81.252-81.25
			C181.252,55.198,144.803,18.748,100,18.748z"/>
		<path d="M97.89,109.57c-0.797,0-1.608-0.108-2.405-0.334c-3.826-1.075-6.469-4.563-6.469-8.54V46.064
			c0-4.901,3.973-8.874,8.874-8.874s8.874,3.973,8.874,8.874v23.082l4.784-7.834c2.552-4.181,8.012-5.49,12.202-2.946
			c4.181,2.557,5.499,8.016,2.946,12.202l-21.232,34.756C103.822,108.01,100.923,109.57,97.89,109.57z"/>
	</g>
</g>
<g id="clock-ten">
	<g>
		<path d="M100,199c-54.587,0-99-44.413-99-99S45.413,1,100,1s99,44.413,99,99S154.587,199,100,199z M100,18.748
			c-44.803,0-81.252,36.449-81.252,81.252S55.197,181.252,100,181.252s81.252-36.449,81.252-81.252S144.803,18.748,100,18.748z"/>
		<path d="M100,108.874c-0.901,0-1.811-0.139-2.695-0.42L58.464,96.083c-4.671-1.486-7.249-6.478-5.763-11.149
			c1.491-4.667,6.465-7.258,11.153-5.759l27.272,8.683V45.37c0-4.901,3.969-8.874,8.874-8.874s8.874,3.973,8.874,8.874V100
			c0,2.829-1.352,5.494-3.64,7.162C103.7,108.289,101.863,108.874,100,108.874z"/>
	</g>
</g>
<g id="clock-seven" display="none">
	<g display="inline">
		<path d="M100,199c-54.587,0-99-44.41-99-98.998S45.413,1,100,1s99,44.414,99,99.002S154.587,199,100,199z M100,18.748
			c-44.803,0-81.252,36.45-81.252,81.254c0,44.8,36.449,81.25,81.252,81.25s81.252-36.45,81.252-81.25
			C181.252,55.198,144.803,18.748,100,18.748z"/>
		<path d="M72.347,138.766c-2.158,0-4.316-0.78-6.023-2.362c-3.605-3.328-3.822-8.943-0.494-12.54l25.296-27.337V45.371
			c0-4.901,3.969-8.874,8.874-8.874s8.874,3.973,8.874,8.874v54.631c0,2.236-0.841,4.385-2.357,6.027l-27.653,29.89
			C77.113,137.808,74.73,138.766,72.347,138.766z"/>
	</g>
</g>
</svg>
